<?xml version="1.0" encoding="UTF-8" standalone="no"?>
<svg
   xmlns:dc="http://purl.org/dc/elements/1.1/"
   xmlns:cc="http://creativecommons.org/ns#"
   xmlns:rdf="http://www.w3.org/1999/02/22-rdf-syntax-ns#"
   xmlns:svg="http://www.w3.org/2000/svg"
   xmlns="http://www.w3.org/2000/svg"
   xmlns:xlink="http://www.w3.org/1999/xlink"
   xmlns:sodipodi="http://sodipodi.sourceforge.net/DTD/sodipodi-0.dtd"
   xmlns:inkscape="http://www.inkscape.org/namespaces/inkscape"
   width="207.44859mm"
   height="105.27543mm"
   viewBox="0 0 207.44859 105.27543"
   version="1.1"
   id="svg22"
   sodipodi:docname="echo.svg"
   inkscape:version="0.92.2 (5c3e80d, 2017-08-06)">
  <metadata
     id="metadata28">
    <rdf:RDF>
      <cc:Work
         rdf:about="">
        <dc:format>image/svg+xml</dc:format>
        <dc:type
           rdf:resource="http://purl.org/dc/dcmitype/StillImage" />
        <dc:title></dc:title>
      </cc:Work>
    </rdf:RDF>
  </metadata>
  <defs
     id="defs26">
    <inkscape:path-effect
       effect="spiro"
       id="path-effect999"
       is_visible="true" />
    <inkscape:path-effect
       effect="spiro"
       id="path-effect995"
       is_visible="true" />
    <inkscape:path-effect
       effect="spiro"
       id="path-effect991"
       is_visible="true" />
    <inkscape:path-effect
       effect="spiro"
       id="path-effect987"
       is_visible="true" />
    <inkscape:path-effect
       effect="spiro"
       id="path-effect983"
       is_visible="true" />
    <inkscape:path-effect
       effect="spiro"
       id="path-effect958"
       is_visible="true" />
    <inkscape:path-effect
       effect="spiro"
       id="path-effect954"
       is_visible="true" />
    <linearGradient
       inkscape:collect="always"
       id="linearGradient880">
      <stop
         style="stop-color:#ff0000;stop-opacity:1"
         offset="0"
         id="stop876" />
      <stop
         style="stop-color:#ff0000;stop-opacity:0.0882353"
         offset="1"
         id="stop878" />
    </linearGradient>
    <inkscape:path-effect
       effect="spiro"
       id="path-effect852"
       is_visible="true" />
    <linearGradient
       inkscape:collect="always"
       xlink:href="#linearGradient880"
       id="linearGradient882"
       x1="17.788155"
       y1="11.914196"
       x2="18.63521"
       y2="115.81961"
       gradientUnits="userSpaceOnUse"
       gradientTransform="translate(-4.2007235,-11.914196)" />
    <linearGradient
       inkscape:collect="always"
       xlink:href="#linearGradient880"
       id="linearGradient916"
       x1="100.51719"
       y1="14.455361"
       x2="112.65831"
       y2="106.78436"
       gradientUnits="userSpaceOnUse"
       gradientTransform="matrix(1.0664327,0.02233945,-0.0213499,1.0191939,-9.2800086,-16.190888)" />
    <linearGradient
       inkscape:collect="always"
       xlink:href="#linearGradient880"
       id="linearGradient950"
       x1="184.82027"
       y1="11.93582"
       x2="195.95206"
       y2="104.81871"
       gradientUnits="userSpaceOnUse"
       gradientTransform="translate(-11.609057,-11.914196)" />
  </defs>
  <sodipodi:namedview
     pagecolor="#ffffff"
     bordercolor="#666666"
     borderopacity="1"
     objecttolerance="10"
     gridtolerance="10"
     guidetolerance="10"
     inkscape:pageopacity="0"
     inkscape:pageshadow="2"
     inkscape:window-width="1366"
     inkscape:window-height="709"
     id="namedview24"
     showgrid="true"
     inkscape:zoom="0.4685351"
     inkscape:cx="192.24533"
     inkscape:cy="-32.894208"
     inkscape:window-x="0"
     inkscape:window-y="0"
     inkscape:window-maximized="1"
     inkscape:current-layer="svg22">
    <inkscape:grid
       type="xygrid"
       id="grid979"
       originx="-2.9307234"
       originy="1.792962" />
  </sodipodi:namedview>
  <path
     style="fill:#ff0000;fill-opacity:0;stroke:#9a0000;stroke-width:1.00012492;stroke-linecap:square;stroke-linejoin:round;stroke-miterlimit:4;stroke-dasharray:none;stroke-dashoffset:0;stroke-opacity:1;paint-order:normal"
     d="m 45.654591,4.7524715 c 0.03763,4.3215759 0.0489,8.6433815 0.03382,12.9650945 -0.039,11.177126 -0.254228,22.357745 0.101943,33.529263 0.102778,3.223689 0.252966,6.455153 0,9.670545 -0.06728,0.855173 -0.163101,1.709983 -0.155279,2.567763 0.0078,0.85778 0.123008,1.726192 0.461111,2.514566 0.366355,0.854249 0.980379,1.581956 1.664989,2.210658 0.684611,0.628702 1.44426,1.169101 2.174654,1.743977 0.730393,0.574877 1.439271,1.192266 1.989325,1.941531 0.550053,0.749266 0.935583,1.645008 0.950248,2.574385 0.01529,0.968781 -0.375761,1.915869 -0.96846,2.68234 -0.848794,1.097651 -2.069834,1.833761 -3.109265,2.752929 -1.571428,1.389612 -2.745367,3.24876 -3.211208,5.294096 -0.299363,1.314393 -0.307333,2.675463 -0.30583,4.023515 0.0058,5.178398 0.130468,10.356663 0.373955,15.529336"
     id="path850"
     inkscape:connector-curvature="0"
     inkscape:path-effect="#path-effect852"
     inkscape:original-d="m 45.654591,4.7524715 c -0.0055,4.297905 0.02273,8.6431325 0.03382,12.9650945 0.01108,4.321964 0.06815,22.352578 0.101943,33.529263 0.03379,11.176686 1.92e-4,6.446764 0,9.670545 -1.9e-4,3.223779 0.204079,3.387956 0.305832,5.082329 0.10175,1.694376 4.519669,5.646769 6.779216,8.470551 2.259547,2.823781 -0.645449,1.787964 -0.96846,2.68234 -0.32301,0.894379 -2.072653,1.835023 -3.109265,2.752929 -1.036613,0.917908 -2.140615,3.529132 -3.211208,5.294096 -1.070594,1.764961 -0.203695,2.682076 -0.30583,4.023515 -0.102135,1.34143 0.249494,10.35263 0.373955,15.529336" />
  <path
     style="fill:url(#linearGradient882);fill-opacity:1;stroke:#000000;stroke-width:0;stroke-linecap:square;stroke-linejoin:round;stroke-miterlimit:4;stroke-dasharray:none;stroke-dashoffset:22.67716599;stroke-opacity:1;paint-order:normal"
     d="M 13.587432,4.9960438e-7 23.752091,77.929062 6.2462885,77.646712 Z"
     id="path856"
     inkscape:connector-curvature="0" />
  <path
     style="fill:url(#linearGradient916);fill-opacity:1;stroke:#000000;stroke-width:0;stroke-linecap:square;stroke-linejoin:round;stroke-miterlimit:4;stroke-dasharray:none;stroke-dashoffset:22.67716599;stroke-opacity:1;paint-order:normal"
     d="M 97.606197,0.7874255 108.08896,89.967304 90.751829,54.768548 Z"
     id="path908"
     inkscape:connector-curvature="0" />
  <path
     style="fill:url(#linearGradient950);fill-opacity:1;stroke:#000000;stroke-width:0;stroke-linecap:square;stroke-linejoin:round;stroke-miterlimit:4;stroke-dasharray:none;stroke-dashoffset:22.67716599;stroke-opacity:1;paint-order:normal"
     d="m 167.11951,45.740972 6.09165,-45.7193475 9.43769,85.8132855 -9.34028,-0.07072 v -40 z"
     id="path942"
     inkscape:connector-curvature="0" />
  <path
     style="fill:none;fill-opacity:0.08823529;stroke:#9a0000;stroke-width:1.00012492;stroke-linecap:square;stroke-linejoin:round;stroke-miterlimit:4;stroke-dasharray:none;stroke-dashoffset:0;stroke-opacity:1;paint-order:normal"
     d="m 126.62904,4.4224685 c -0.0918,7.6196315 -0.0918,15.2403695 0,22.8600005 0.0816,6.773549 0.23584,13.550065 0,20.32 -0.0295,0.846631 -0.065,1.695357 0,2.54 0.13943,1.810472 0.75186,3.586534 1.78472,5.08 0.89539,1.294683 2.08134,2.35602 3.12925,3.53067 1.04791,1.17465 1.98875,2.53301 2.22495,4.08933 0.12729,0.838708 0.0432,1.69279 0,2.54 -0.0863,1.691444 -0.008,3.386378 0,5.080001 0.0127,2.540401 -0.13091,5.082943 0,7.62 0.0437,0.846989 0.11774,1.700097 0,2.54 -0.17039,1.21544 -0.73532,2.34312 -1.41068,3.367921 -0.67536,1.024801 -1.46641,1.968709 -2.1588,2.982079 -0.58427,0.855117 -1.1005,1.762547 -1.78472,2.540004 -0.34685,0.394111 -0.73433,0.751737 -1.06901,1.156235 -0.33467,0.404499 -0.61987,0.867586 -0.71571,1.383765 -0.0775,0.417441 -0.0277,0.846328 0,1.27 0.0552,0.845186 0.021,1.693274 0,2.54 -0.0631,2.539328 -0.008,5.079896 0,7.619996 0.001,0.42333 0.001,0.84667 0,1.27"
     id="path989"
     inkscape:connector-curvature="0"
     inkscape:path-effect="#path-effect991"
     inkscape:original-d="m 126.62904,4.4224685 c 3.8e-4,7.6197355 3.8e-4,15.2397355 0,22.8600005 -3.7e-4,7.620264 3.8e-4,13.546402 0,20.32 -3.7e-4,6.773598 3.8e-4,1.693069 0,2.54 -3.7e-4,0.846931 1.1902,3.386402 1.78472,5.08 0.59455,1.693598 3.56985,5.079736 5.3542,7.62 1.78435,2.540265 3.8e-4,1.693069 0,2.54 -3.7e-4,0.846932 3.8e-4,3.386403 0,5.080001 -3.7e-4,1.693598 3.8e-4,5.079735 0,7.62 -3.7e-4,2.540264 3.8e-4,1.693069 0,2.54 -3.7e-4,0.846931 -2.37927,4.233069 -3.56948,6.35 -1.19017,2.116934 -1.18943,1.693064 -1.78472,2.540004 -0.59525,0.84693 -1.18943,1.69306 -1.78472,2.54 -0.59528,0.84693 3.8e-4,0.8464 0,1.27 -3.7e-4,0.42359 3.8e-4,1.69306 0,2.54 -3.7e-4,0.84693 3.8e-4,5.079726 0,7.619996 -3.7e-4,2.54026 3.8e-4,0.8464 0,1.27" />
  <path
     style="fill:none;fill-opacity:0.08823529;stroke:#9a0000;stroke-width:1.00012492;stroke-linecap:square;stroke-linejoin:round;stroke-miterlimit:4;stroke-dasharray:none;stroke-dashoffset:0;stroke-opacity:1;paint-order:normal"
     d="m 203.04599,4.4224685 c -3.2e-4,2.5400002 -3.2e-4,5.0800003 0,7.6200005 4.3e-4,3.386666 0.001,6.773333 0,10.159999 -7.1e-4,1.693334 -0.002,3.386668 0,5.080001 0.002,1.693335 0.007,3.38668 0,5.08 -0.007,1.693353 -0.0275,3.386854 0,5.08 0.0138,0.846714 0.0394,1.694093 0,2.54 -0.0395,0.847734 -0.14391,1.703637 0,2.54 0.0942,0.547224 0.29688,1.079585 0.62135,1.530185 0.32447,0.450601 0.77369,0.816648 1.29427,1.009815 0.38697,0.143588 0.80636,0.191299 1.18448,0.356778 0.18906,0.08274 0.36769,0.196181 0.50357,0.351517 0.13587,0.155337 0.22649,0.355333 0.22753,0.561705 0.001,0.206869 -0.088,0.408258 -0.22314,0.564912 -0.13511,0.156654 -0.31371,0.271306 -0.50309,0.354573 -0.37874,0.166533 -0.79932,0.212445 -1.18935,0.350515 -0.52683,0.186499 -0.98904,0.542672 -1.32012,0.992918 -0.33107,0.450246 -0.53217,0.991815 -0.5955,1.547082 -0.048,0.421093 -0.0187,0.84659 0,1.27 0.0561,1.268965 0.0162,2.539901 0,3.81 -0.0216,1.693214 -0.001,3.386648 0,5.08 0.001,1.693344 -0.0167,3.386739 0,5.08 0.0418,4.234676 0.30042,8.475787 0,12.700001 -0.0301,0.423245 -0.0656,0.850796 0,1.27 0.0846,0.54027 0.33687,1.046585 0.67956,1.472745 0.34269,0.42616 0.77357,0.775442 1.23606,1.067255 0.48971,0.308991 1.02451,0.562087 1.43625,0.969229 0.20587,0.203571 0.37828,0.445821 0.47298,0.719418 0.0947,0.273597 0.10765,0.58013 0.006,0.851353 -0.0691,0.18502 -0.18883,0.348757 -0.33307,0.483669 -0.14425,0.134912 -0.31266,0.242019 -0.48884,0.331296 -0.35234,0.178555 -0.73603,0.287331 -1.09367,0.455035 -0.50078,0.234826 -0.94764,0.586888 -1.28382,1.026102 -0.33618,0.439214 -0.56009,0.965465 -0.6318,1.513902 -0.055,0.420399 -0.0216,0.846572 0,1.27 0.0647,1.268637 0.0225,2.539915 0,3.81 -0.045,2.539663 -0.0112,5.079959 0,7.619996 0.006,1.26999 0.006,2.54001 0,3.81"
     id="path997"
     inkscape:connector-curvature="0"
     inkscape:path-effect="#path-effect999"
     inkscape:original-d="m 203.04599,4.4224685 c 3.9e-4,2.539736 3.9e-4,5.079736 0,7.6200005 -4.1e-4,2.540264 3.9e-4,6.773068 0,10.159999 -4.1e-4,3.386932 3.9e-4,3.386403 0,5.080001 -4.1e-4,1.693597 3.9e-4,3.386402 0,5.08 -4.1e-4,1.693598 3.9e-4,3.386402 0,5.08 -4.1e-4,1.693598 3.9e-4,1.693069 0,2.54 -4.1e-4,0.846931 3.9e-4,1.693069 0,2.54 -4.1e-4,0.846931 1.27747,1.693069 1.91562,2.54 0.63811,0.846931 1.27745,0.846402 1.91558,1.27 0.63811,0.423598 -1.27667,0.846402 -1.91558,1.27 -0.63895,0.423598 -1.2767,1.693069 -1.91562,2.54 -0.63893,0.846931 3.9e-4,0.846402 0,1.27 -4.1e-4,0.423598 3.9e-4,2.539736 0,3.81 -4.1e-4,1.270265 3.9e-4,3.386402 0,5.08 -4.1e-4,1.693598 3.9e-4,3.386403 0,5.08 -4.1e-4,1.693598 3.9e-4,8.466403 0,12.700001 -4.1e-4,4.233598 3.9e-4,0.846402 0,1.27 -4.1e-4,0.423598 1.27747,1.693069 1.91562,2.54 0.63811,0.846931 1.27745,1.693069 1.91558,2.54 0.63811,0.846931 -1.27667,0.846402 -1.91558,1.27 -0.63895,0.423598 -1.2767,1.693069 -1.91562,2.540004 -0.63893,0.84693 3.9e-4,0.8464 0,1.27 -4.1e-4,0.42359 3.9e-4,2.53973 0,3.81 -4.1e-4,1.27026 3.9e-4,5.07973 0,7.619996 -4.1e-4,2.54026 3.9e-4,2.53973 0,3.81" />
  <flowRoot
     xml:space="preserve"
     id="flowRoot1032"
     style="font-style:normal;font-variant:normal;font-weight:normal;font-stretch:normal;font-size:17.33333397px;line-height:1.25;font-family:sans-serif;-inkscape-font-specification:'sans-serif, Normal';font-variant-ligatures:normal;font-variant-caps:normal;font-variant-numeric:normal;font-feature-settings:normal;text-align:start;letter-spacing:0px;word-spacing:0px;writing-mode:lr-tb;text-anchor:start;fill:#000000;fill-opacity:1;stroke:none"
     transform="matrix(0.26458334,0,0,0.26458334,-4.2007235,-11.914196)"><flowRegion
       id="flowRegion1034"><rect
         id="rect1036"
         width="19.200001"
         height="153.60001"
         x="-91.199997"
         y="-101.45513" /></flowRegion><flowPara
       id="flowPara1038"></flowPara></flowRoot>  <text
     xml:space="preserve"
     style="font-style:normal;font-variant:normal;font-weight:normal;font-stretch:normal;font-size:4.58611155px;line-height:1.25;font-family:sans-serif;-inkscape-font-specification:'sans-serif, Normal';font-variant-ligatures:normal;font-variant-caps:normal;font-variant-numeric:normal;font-feature-settings:normal;text-align:start;letter-spacing:0px;word-spacing:0px;writing-mode:lr-tb;text-anchor:start;fill:#000000;fill-opacity:1;stroke:none;stroke-width:0.26458335"
     x="73.978653"
     y="100.71136"
     id="text1046"><tspan
       sodipodi:role="line"
       id="tspan1044"
       x="73.978653"
       y="100.71136"
       style="stroke-width:0.26458335">schr채ge Fl채che</tspan></text>
  <text
     xml:space="preserve"
     style="font-style:normal;font-variant:normal;font-weight:normal;font-stretch:normal;font-size:4.58611155px;line-height:1.25;font-family:sans-serif;-inkscape-font-specification:'sans-serif, Normal';font-variant-ligatures:normal;font-variant-caps:normal;font-variant-numeric:normal;font-feature-settings:normal;text-align:start;letter-spacing:0px;word-spacing:0px;writing-mode:lr-tb;text-anchor:start;fill:#000000;fill-opacity:1;stroke:none;stroke-width:0.26458335"
     x="158.39755"
     y="100.56905"
     id="text1050"><tspan
       sodipodi:role="line"
       id="tspan1048"
       x="158.39755"
       y="100.56905"
       style="stroke-width:0.26458335">zwei Fl채chen</tspan></text>
  <line
     style="fill:none;stroke:#000000;stroke-width:1;stroke-miterlimit:4;stroke-dasharray:none;paint-order:stroke fill markers"
     id="line2"
     y2="45.764187"
     x2="173.3087"
     y1="45.764187"
     x1="154.76103" />
  <line
     style="fill:none;stroke:#000000;stroke-width:1;stroke-miterlimit:4;stroke-dasharray:none;paint-order:stroke fill markers"
     id="line6"
     y2="85.764191"
     x2="193.3087"
     y1="85.764191"
     x1="154.76103" />
  <line
     style="fill:none;stroke:#000000;stroke-width:1"
     id="line18"
     y2="104.75246"
     x2="115.79928"
     y1="24.752472"
     x1="75.799278" />
  <path
     style="fill:#ff0000;fill-opacity:0;stroke:#000000;stroke-width:1;stroke-linecap:square;stroke-linejoin:round;stroke-miterlimit:4;stroke-dasharray:none;stroke-dashoffset:22.67716599;stroke-opacity:1;paint-order:normal"
     d="M 31.093237,77.929062 H 2.0110133"
     id="path854"
     inkscape:connector-curvature="0" />
  <text
     xml:space="preserve"
     style="font-style:normal;font-variant:normal;font-weight:normal;font-stretch:normal;font-size:4.58611155px;line-height:1.25;font-family:sans-serif;-inkscape-font-specification:'sans-serif, Normal';font-variant-ligatures:normal;font-variant-caps:normal;font-variant-numeric:normal;font-feature-settings:normal;text-align:start;letter-spacing:0px;word-spacing:0px;writing-mode:lr-tb;text-anchor:start;fill:#000000;fill-opacity:1;stroke:none;stroke-width:0.26458335"
     x="-0.25304228"
     y="100.80305"
     id="text1054"><tspan
       sodipodi:role="line"
       id="tspan1052"
       x="-0.25304228"
       y="100.80305"
       style="stroke-width:0.26458335">ebene Fl채che</tspan><tspan
       sodipodi:role="line"
       x="-0.25304228"
       y="106.53569"
       style="stroke-width:0.26458335"
       id="tspan1056" /></text>
</svg>
