<?xml version="1.0" encoding="UTF-8" standalone="no"?>
<svg
   xmlns:dc="http://purl.org/dc/elements/1.1/"
   xmlns:cc="http://creativecommons.org/ns#"
   xmlns:rdf="http://www.w3.org/1999/02/22-rdf-syntax-ns#"
   xmlns:svg="http://www.w3.org/2000/svg"
   xmlns="http://www.w3.org/2000/svg"
   xmlns:sodipodi="http://sodipodi.sourceforge.net/DTD/sodipodi-0.dtd"
   xmlns:inkscape="http://www.inkscape.org/namespaces/inkscape"
   version="1.1"
   width="7.8943133cm"
   height="2.9388862cm"
   viewBox="0 0 31079.996 11570.429"
   id="svg618"
   sodipodi:docname="schaltplanGnss.svg"
   inkscape:version="0.92.2 (5c3e80d, 2017-08-06)">
  <metadata
     id="metadata624">
    <rdf:RDF>
      <cc:Work
         rdf:about="">
        <dc:format>image/svg+xml</dc:format>
        <dc:type
           rdf:resource="http://purl.org/dc/dcmitype/StillImage" />
        <dc:title>SVG Picture created as gnss.sch.svg date 2017/11/20 18:46:59 </dc:title>
      </cc:Work>
    </rdf:RDF>
  </metadata>
  <defs
     id="defs622" />
  <sodipodi:namedview
     pagecolor="#ffffff"
     bordercolor="#666666"
     borderopacity="1"
     objecttolerance="10"
     gridtolerance="10"
     guidetolerance="10"
     inkscape:pageopacity="0"
     inkscape:pageshadow="2"
     inkscape:window-width="1366"
     inkscape:window-height="709"
     id="namedview620"
     showgrid="false"
     inkscape:zoom="2.0525115"
     inkscape:cx="177.72344"
     inkscape:cy="68.860144"
     inkscape:window-x="0"
     inkscape:window-y="0"
     inkscape:window-maximized="1"
     inkscape:current-layer="svg618" />
  <title
     id="title2">SVG Picture created as gnss.sch.svg date 2017/11/20 18:46:59 </title>
  <desc
     id="desc4">Picture generated by Eeschema-SVG </desc>
  <g
     style="fill:#000000;fill-opacity:1;stroke:#000000;stroke-linecap:round;stroke-linejoin:round;stroke-opacity:1"
     id="g6"
     transform="translate(-32950,-19479.573)" />
  <g
     style="fill:#000000;fill-opacity:0;stroke:#000000;stroke-width:0;stroke-linecap:round;stroke-linejoin:round;stroke-opacity:1"
     id="g8"
     transform="translate(-32950,-19479.573)" />
  <g
     style="fill:#000000;fill-opacity:0;stroke:#000000;stroke-width:60;stroke-linecap:round;stroke-linejoin:round;stroke-opacity:1"
     id="g14"
     transform="translate(-32950,-19479.573)">
    <polyline
       fill="none;"
       points="48500,25500 48500,28500 45500,27000 48500,25500 "
       id="polyline10" />
    <path
       d="m 48500,27000 h 3000"
       id="path12"
       inkscape:connector-curvature="0" />
  </g>
  <g
     style="fill:#484848;fill-opacity:0;stroke:#484848;stroke-width:60;stroke-linecap:round;stroke-linejoin:round;stroke-opacity:1"
     id="g20"
     transform="translate(-32950,-19479.573)">
    <path
       d="m 50140,26880 h -280"
       id="path16"
       inkscape:connector-curvature="0" />
    <path
       d="m 50000,26880 v -500 l -50,70 -50,50 -40,20"
       id="path18"
       inkscape:connector-curvature="0" />
  </g>
  <g
     style="fill:#000000;fill-opacity:0;stroke:#000000;stroke-width:60;stroke-linecap:round;stroke-linejoin:round;stroke-opacity:1"
     id="g26"
     transform="translate(-32950,-19479.573)">
    <circle
       cx="45250"
       cy="27000"
       r="250"
       id="circle22" />
    <path
       d="M 45000,27000 H 42500"
       id="path24"
       inkscape:connector-curvature="0" />
  </g>
  <g
     style="fill:#484848;fill-opacity:0;stroke:#484848;stroke-width:60;stroke-linecap:round;stroke-linejoin:round;stroke-opacity:1"
     id="g58"
     transform="translate(-32950,-19479.573)">
    <path
       d="m 43860,26420 20,-20 50,-20 h 120 l 40,20 30,20 20,50 v 50 l -20,70 -290,290 h 310"
       id="path28"
       inkscape:connector-curvature="0" />
    <path
       d="m 44900,25760 v 400 l 20,50 30,20 40,30 h 100 l 50,-30 20,-20 20,-50 v -400"
       id="path30"
       inkscape:connector-curvature="0" />
    <path
       d="m 45400,25800 20,-20 50,-20 h 120 l 40,20 30,20 20,50 v 50 l -20,70 -290,290 h 310"
       id="path32"
       inkscape:connector-curvature="0" />
    <path
       d="m 45880,26110 h 230"
       id="path34"
       inkscape:connector-curvature="0" />
    <path
       d="m 45830,26260 160,-500 170,500"
       id="path36"
       inkscape:connector-curvature="0" />
    <path
       d="m 43600,27760 h 330 l -210,500"
       id="path38"
       inkscape:connector-curvature="0" />
    <path
       d="m 44340,27920 v 340"
       id="path40"
       inkscape:connector-curvature="0" />
    <path
       d="m 44220,27730 -110,360 h 300"
       id="path42"
       inkscape:connector-curvature="0" />
    <path
       d="m 44610,28260 v -500"
       id="path44"
       inkscape:connector-curvature="0" />
    <path
       d="m 44610,27990 h 280"
       id="path46"
       inkscape:connector-curvature="0" />
    <path
       d="m 44890,28260 v -500"
       id="path48"
       inkscape:connector-curvature="0" />
    <path
       d="m 45410,28210 -20,20 -70,30 h -50 l -70,-30 -50,-50 -20,-40 -20,-100 v -70 l 20,-90 20,-50 50,-50 70,-20 h 50 l 70,20 20,20"
       id="path50"
       inkscape:connector-curvature="0" />
    <path
       d="m 45720,27760 h 50 l 50,20 20,20 30,50 20,100 v 120 l -20,90 -30,50 -20,20 -50,30 h -50 l -40,-30 -30,-20 -20,-50 -20,-90 v -120 l 20,-100 20,-50 30,-20 40,-20"
       id="path52"
       inkscape:connector-curvature="0" />
    <path
       d="m 46320,27920 v 340"
       id="path54"
       inkscape:connector-curvature="0" />
    <path
       d="m 46200,27730 -110,360 h 300"
       id="path56"
       inkscape:connector-curvature="0" />
  </g>
  <g
     style="fill:#484848;fill-opacity:0;stroke:#484848;stroke-width:0;stroke-linecap:round;stroke-linejoin:round;stroke-opacity:1"
     id="g60"
     transform="translate(-32950,-19479.573)" />
  <g
     style="fill:#000000;fill-opacity:0;stroke:#000000;stroke-width:0;stroke-linecap:round;stroke-linejoin:round;stroke-opacity:1"
     id="g62"
     transform="translate(-32950,-19479.573)" />
  <g
     style="fill:#c2c2c2;fill-opacity:0;stroke:#c2c2c2;stroke-width:0;stroke-linecap:round;stroke-linejoin:round;stroke-opacity:1"
     id="g64"
     transform="translate(-32950,-19479.573)" />
  <g
     style="fill:#c2c2c2;fill-opacity:0.6;stroke:#c2c2c2;stroke-width:0;stroke-linecap:round;stroke-linejoin:round;stroke-opacity:1"
     id="g68"
     transform="translate(-32950,-19479.573)">
    <rect
       x="55500"
       y="25000"
       width="8500"
       height="6000"
       rx="0"
       id="rect66" />
  </g>
  <g
     style="fill:#000000;fill-opacity:0.6;stroke:#000000;stroke-width:0;stroke-linecap:round;stroke-linejoin:round;stroke-opacity:1"
     id="g70"
     transform="translate(-32950,-19479.573)" />
  <g
     style="fill:#000000;fill-opacity:0;stroke:#000000;stroke-width:60;stroke-linecap:round;stroke-linejoin:round;stroke-opacity:1"
     id="g76"
     transform="translate(-32950,-19479.573)">
    <rect
       x="55500"
       y="25000"
       width="8500"
       height="6000"
       rx="0"
       id="rect72" />
    <path
       d="M 55500,26000 H 53500"
       id="path74"
       inkscape:connector-curvature="0" />
  </g>
  <g
     style="fill:#484848;fill-opacity:0;stroke:#484848;stroke-width:60;stroke-linecap:round;stroke-linejoin:round;stroke-opacity:1"
     id="g94"
     transform="translate(-32950,-19479.573)">
    <path
       d="m 56020,26040 h 380"
       id="path78"
       inkscape:connector-curvature="0" />
    <path
       d="m 56210,26230 v -380"
       id="path80"
       inkscape:connector-curvature="0" />
    <path
       d="m 56590,25730 h 310 l -170,190 h 80 l 40,20 30,20 20,50 v 120 l -20,50 -30,20 -40,30 h -150 l -40,-30 -30,-20"
       id="path82"
       inkscape:connector-curvature="0" />
    <path
       d="m 57140,26200 v 30 l -20,40 -20,30"
       id="path84"
       inkscape:connector-curvature="0" />
    <path
       d="m 57310,25730 h 310 l -170,190 h 80 l 40,20 30,20 20,50 v 120 l -20,50 -30,20 -40,30 h -150 l -40,-30 -30,-20"
       id="path86"
       inkscape:connector-curvature="0" />
    <path
       d="m 57770,25730 160,500 170,-500"
       id="path88"
       inkscape:connector-curvature="0" />
    <path
       d="m 54640,25880 h -280"
       id="path90"
       inkscape:connector-curvature="0" />
    <path
       d="m 54500,25880 v -500 l -50,70 -50,50 -40,20"
       id="path92"
       inkscape:connector-curvature="0" />
  </g>
  <g
     style="fill:#000000;fill-opacity:0;stroke:#000000;stroke-width:60;stroke-linecap:round;stroke-linejoin:round;stroke-opacity:1"
     id="g98"
     transform="translate(-32950,-19479.573)">
    <path
       d="M 55500,27000 H 53500"
       id="path96"
       inkscape:connector-curvature="0" />
  </g>
  <g
     style="fill:#484848;fill-opacity:0;stroke:#484848;stroke-width:60;stroke-linecap:round;stroke-linejoin:round;stroke-opacity:1"
     id="g108"
     transform="translate(-32950,-19479.573)">
    <path
       d="m 56280,26750 -50,-20 h -70 l -70,20 -50,50 -20,50 -20,90 v 70 l 20,100 20,40 50,50 70,30 h 50 l 70,-30 20,-20 v -170 h -90"
       id="path100"
       inkscape:connector-curvature="0" />
    <path
       d="m 56520,27230 v -500 l 280,500 v -500"
       id="path102"
       inkscape:connector-curvature="0" />
    <path
       d="m 57040,27230 v -500 h 120 l 70,20 50,50 20,50 20,90 v 70 l -20,100 -20,40 -50,50 -70,30 h -120"
       id="path104"
       inkscape:connector-curvature="0" />
    <path
       d="m 54360,26420 20,-20 50,-20 h 120 l 40,20 30,20 20,50 v 50 l -20,70 -290,290 h 310"
       id="path106"
       inkscape:connector-curvature="0" />
  </g>
  <g
     style="fill:#000000;fill-opacity:0;stroke:#000000;stroke-width:60;stroke-linecap:round;stroke-linejoin:round;stroke-opacity:1"
     id="g112"
     transform="translate(-32950,-19479.573)">
    <path
       d="M 55500,28000 H 53500"
       id="path110"
       inkscape:connector-curvature="0" />
  </g>
  <g
     style="fill:#484848;fill-opacity:0;stroke:#484848;stroke-width:60;stroke-linecap:round;stroke-linejoin:round;stroke-opacity:1"
     id="g124"
     transform="translate(-32950,-19479.573)">
    <path
       d="m 56300,28230 -160,-240"
       id="path114"
       inkscape:connector-curvature="0" />
    <path
       d="m 56020,28230 v -500 h 190 l 50,20 20,20 20,50 v 70 l -20,50 -20,20 -50,30 h -190"
       id="path116"
       inkscape:connector-curvature="0" />
    <path
       d="m 56470,27730 330,500"
       id="path118"
       inkscape:connector-curvature="0" />
    <path
       d="m 56800,27730 -330,500"
       id="path120"
       inkscape:connector-curvature="0" />
    <path
       d="m 54330,27380 h 310 l -170,190 h 80 l 40,20 30,20 20,50 v 120 l -20,50 -30,20 -40,30 h -150 l -40,-30 -30,-20"
       id="path122"
       inkscape:connector-curvature="0" />
  </g>
  <g
     style="fill:#000000;fill-opacity:0;stroke:#000000;stroke-width:60;stroke-linecap:round;stroke-linejoin:round;stroke-opacity:1"
     id="g128"
     transform="translate(-32950,-19479.573)">
    <path
       d="M 55500,29000 H 53500"
       id="path126"
       inkscape:connector-curvature="0" />
  </g>
  <g
     style="fill:#484848;fill-opacity:0;stroke:#484848;stroke-width:60;stroke-linecap:round;stroke-linejoin:round;stroke-opacity:1"
     id="g142"
     transform="translate(-32950,-19479.573)">
    <path
       d="m 55950,28730 h 280"
       id="path130"
       inkscape:connector-curvature="0" />
    <path
       d="m 56090,29230 v -500"
       id="path132"
       inkscape:connector-curvature="0" />
    <path
       d="m 56350,28730 330,500"
       id="path134"
       inkscape:connector-curvature="0" />
    <path
       d="m 56680,28730 -330,500"
       id="path136"
       inkscape:connector-curvature="0" />
    <path
       d="m 54590,28540 v 340"
       id="path138"
       inkscape:connector-curvature="0" />
    <path
       d="m 54470,28350 -110,360 h 300"
       id="path140"
       inkscape:connector-curvature="0" />
  </g>
  <g
     style="fill:#000000;fill-opacity:0;stroke:#000000;stroke-width:60;stroke-linecap:round;stroke-linejoin:round;stroke-opacity:1"
     id="g146"
     transform="translate(-32950,-19479.573)">
    <path
       d="M 55500,30000 H 53500"
       id="path144"
       inkscape:connector-curvature="0" />
  </g>
  <g
     style="fill:#484848;fill-opacity:0;stroke:#484848;stroke-width:60;stroke-linecap:round;stroke-linejoin:round;stroke-opacity:1"
     id="g188"
     transform="translate(-32950,-19479.573)">
    <path
       d="m 56020,30230 v -500 h 190 l 50,20 20,20 20,50 v 70 l -20,50 -20,20 -50,30 h -190"
       id="path148"
       inkscape:connector-curvature="0" />
    <path
       d="m 56520,30230 v -500 h 190 l 50,20 20,20 20,50 v 70 l -20,50 -20,20 -50,30 h -190"
       id="path150"
       inkscape:connector-curvature="0" />
    <path
       d="m 57000,30200 70,30 h 120 l 40,-30 30,-20 20,-50 v -50 l -20,-40 -30,-30 -40,-20 -100,-30 -50,-20 -20,-20 -20,-50 v -50 l 20,-50 20,-20 50,-20 h 120 l 70,20"
       id="path152"
       inkscape:connector-curvature="0" />
    <path
       d="m 54620,29380 h -240 l -20,230 20,-20 50,-20 h 120 l 40,20 30,20 20,50 v 120 l -20,50 -30,20 -40,30 h -120 l -50,-30 -20,-20"
       id="path154"
       inkscape:connector-curvature="0" />
    <path
       d="m 60040,27210 v 490 l 30,50 30,30 60,30 h 110 l 60,-30 30,-30 30,-50 v -490"
       id="path156"
       inkscape:connector-curvature="0" />
    <path
       d="m 60930,27410 v 400"
       id="path158"
       inkscape:connector-curvature="0" />
    <path
       d="m 60790,27180 -150,430 h 380"
       id="path160"
       inkscape:connector-curvature="0" />
    <path
       d="m 58130,28910 v 400"
       id="path162"
       inkscape:connector-curvature="0" />
    <path
       d="m 57870,28910 v 320 l 30,50 60,30 h 80 l 60,-30 30,-30"
       id="path164"
       inkscape:connector-curvature="0" />
    <path
       d="m 58610,29000 90,30 30,20 30,60 v 90 l -30,50 -30,30 -60,30 h -230 v -600 h 200 l 60,30 30,30 30,60 v 50 l -30,60 -30,30 -60,30 h -200"
       id="path166"
       inkscape:connector-curvature="0" />
    <path
       d="m 59100,29310 -60,-30 -30,-50 v -520"
       id="path168"
       inkscape:connector-curvature="0" />
    <path
       d="m 59410,29310 -60,-30 -30,-30 -30,-50 v -170 l 30,-60 30,-30 60,-30 h 80 l 60,30 30,30 30,60 v 170 l -30,50 -30,30 -60,30 h -80"
       id="path170"
       inkscape:connector-curvature="0" />
    <path
       d="m 59810,29310 310,-400"
       id="path172"
       inkscape:connector-curvature="0" />
    <path
       d="m 59810,28910 310,400"
       id="path174"
       inkscape:connector-curvature="0" />
    <path
       d="m 60350,29310 v -600 l 350,600 v -600"
       id="path176"
       inkscape:connector-curvature="0" />
    <path
       d="m 60980,29000 h 200"
       id="path178"
       inkscape:connector-curvature="0" />
    <path
       d="m 61270,29310 h -290 v -600 h 290"
       id="path180"
       inkscape:connector-curvature="0" />
    <path
       d="m 61640,28710 h 110 l 60,30 60,60 20,110 v 200 l -20,120 -60,50 -60,30 h -110 l -60,-30 -60,-50 -30,-120 v -200 l 30,-110 60,-60 60,-30"
       id="path182"
       inkscape:connector-curvature="0" />
    <path
       d="m 62410,28710 h -110 l -60,30 -30,30 -60,80 -30,120 v 230 l 30,50 30,30 60,30 h 110 l 60,-30 30,-30 30,-50 v -150 l -30,-50 -30,-30 -60,-30 h -110 l -60,30 -30,30 -30,50"
       id="path184"
       inkscape:connector-curvature="0" />
    <path
       d="m 62720,29310 v -600 l 200,430 200,-430 v 600"
       id="path186"
       inkscape:connector-curvature="0" />
  </g>
  <g
     style="fill:#484848;fill-opacity:0;stroke:#484848;stroke-width:0;stroke-linecap:round;stroke-linejoin:round;stroke-opacity:1"
     id="g190"
     transform="translate(-32950,-19479.573)" />
  <g
     style="fill:#000000;fill-opacity:0;stroke:#000000;stroke-width:0;stroke-linecap:round;stroke-linejoin:round;stroke-opacity:1"
     id="g192"
     transform="translate(-32950,-19479.573)" />
  <g
     style="fill:#c2c2c2;fill-opacity:0;stroke:#c2c2c2;stroke-width:0;stroke-linecap:round;stroke-linejoin:round;stroke-opacity:1"
     id="g194"
     transform="translate(-32950,-19479.573)" />
  <g
     style="fill:#c2c2c2;fill-opacity:0.6;stroke:#c2c2c2;stroke-width:0;stroke-linecap:round;stroke-linejoin:round;stroke-opacity:1"
     id="g198"
     transform="translate(-32950,-19479.573)">
    <rect
       x="46000"
       y="20250"
       width="4000"
       height="2750"
       rx="0"
       id="rect196" />
  </g>
  <g
     style="fill:#000000;fill-opacity:0.6;stroke:#000000;stroke-width:0;stroke-linecap:round;stroke-linejoin:round;stroke-opacity:1"
     id="g200"
     transform="translate(-32950,-19479.573)" />
  <g
     style="fill:#000000;fill-opacity:0;stroke:#000000;stroke-width:100;stroke-linecap:round;stroke-linejoin:round;stroke-opacity:1"
     id="g204"
     transform="translate(-32950,-19479.573)">
    <rect
       x="46000"
       y="20250"
       width="4000"
       height="2750"
       rx="0"
       id="rect202" />
  </g>
  <g
     style="fill:#000000;fill-opacity:0;stroke:#000000;stroke-width:60;stroke-linecap:round;stroke-linejoin:round;stroke-opacity:1"
     id="g208"
     transform="translate(-32950,-19479.573)">
    <path
       d="m 48000,23000 v 1000"
       id="path206"
       inkscape:connector-curvature="0" />
  </g>
  <g
     style="fill:#484848;fill-opacity:0;stroke:#484848;stroke-width:60;stroke-linecap:round;stroke-linejoin:round;stroke-opacity:1"
     id="g220"
     transform="translate(-32950,-19479.573)">
    <path
       d="m 47750,22520 -20,50 v 70 l 20,70 50,50 50,20 90,20 h 70 l 100,-20 40,-20 50,-50 30,-70 v -50 l -30,-70 -20,-20 h -170 v 90"
       id="path210"
       inkscape:connector-curvature="0" />
    <path
       d="m 48230,22280 h -500 l 500,-280 h -500"
       id="path212"
       inkscape:connector-curvature="0" />
    <path
       d="m 48230,21760 h -500 v -120 l 20,-70 50,-50 50,-20 90,-20 h 70 l 100,20 40,20 50,50 30,70 v 120"
       id="path214"
       inkscape:connector-curvature="0" />
    <path
       d="m 47880,23360 v 280"
       id="path216"
       inkscape:connector-curvature="0" />
    <path
       d="m 47880,23500 h -500 l 70,50 50,50 20,40"
       id="path218"
       inkscape:connector-curvature="0" />
  </g>
  <g
     style="fill:#000000;fill-opacity:0;stroke:#000000;stroke-width:60;stroke-linecap:round;stroke-linejoin:round;stroke-opacity:1"
     id="g224"
     transform="translate(-32950,-19479.573)">
    <path
       d="m 50000,21000 h 1000"
       id="path222"
       inkscape:connector-curvature="0" />
  </g>
  <g
     style="fill:#484848;fill-opacity:0;stroke:#484848;stroke-width:60;stroke-linecap:round;stroke-linejoin:round;stroke-opacity:1"
     id="g232"
     transform="translate(-32950,-19479.573)">
    <path
       d="m 49000,20730 160,500 170,-500"
       id="path226"
       inkscape:connector-curvature="0" />
    <path
       d="m 49590,20730 h 100 l 50,20 40,50 30,90 v 170 l -30,90 -40,50 -50,30 h -100 l -40,-30 -50,-50 -20,-90 v -170 l 20,-90 50,-50 40,-20"
       id="path228"
       inkscape:connector-curvature="0" />
    <path
       d="m 50360,20420 20,-20 50,-20 h 120 l 40,20 30,20 20,50 v 50 l -20,70 -290,290 h 310"
       id="path230"
       inkscape:connector-curvature="0" />
  </g>
  <g
     style="fill:#000000;fill-opacity:0;stroke:#000000;stroke-width:60;stroke-linecap:round;stroke-linejoin:round;stroke-opacity:1"
     id="g236"
     transform="translate(-32950,-19479.573)">
    <path
       d="M 46000,21000 H 45000"
       id="path234"
       inkscape:connector-curvature="0" />
  </g>
  <g
     style="fill:#484848;fill-opacity:0;stroke:#484848;stroke-width:60;stroke-linecap:round;stroke-linejoin:round;stroke-opacity:1"
     id="g272"
     transform="translate(-32950,-19479.573)">
    <path
       d="m 46150,20730 160,500 170,-500"
       id="path238"
       inkscape:connector-curvature="0" />
    <path
       d="m 46650,21230 v -500"
       id="path240"
       inkscape:connector-curvature="0" />
    <path
       d="m 45330,20380 h 310 l -170,190 h 80 l 40,20 30,20 20,50 v 120 l -20,50 -30,20 -40,30 h -150 l -40,-30 -30,-20"
       id="path242"
       inkscape:connector-curvature="0" />
    <path
       d="m 46120,19510 v 400 l 20,50 30,20 40,30 h 100 l 50,-30 20,-20 20,-50 v -400"
       id="path244"
       inkscape:connector-curvature="0" />
    <path
       d="m 46590,19510 h 310 l -170,190 h 80 l 40,20 30,20 20,50 v 120 l -20,50 -30,20 -40,30 h -150 l -40,-30 -30,-20"
       id="path246"
       inkscape:connector-curvature="0" />
    <path
       d="m 48360,20010 h -240 v -500"
       id="path248"
       inkscape:connector-curvature="0" />
    <path
       d="m 48520,20010 v -500 h 120 l 70,20 50,50 20,50 20,90 v 70 l -20,100 -20,40 -50,50 -70,30 h -120"
       id="path250"
       inkscape:connector-curvature="0" />
    <path
       d="m 49280,20010 h -280"
       id="path252"
       inkscape:connector-curvature="0" />
    <path
       d="m 49140,20010 v -500 l -50,70 -50,50 -40,20"
       id="path254"
       inkscape:connector-curvature="0" />
    <path
       d="m 49760,20010 h -280"
       id="path256"
       inkscape:connector-curvature="0" />
    <path
       d="m 49620,20010 v -500 l -50,70 -50,50 -40,20"
       id="path258"
       inkscape:connector-curvature="0" />
    <path
       d="m 50240,20010 h -280"
       id="path260"
       inkscape:connector-curvature="0" />
    <path
       d="m 50100,20010 v -500 l -50,70 -50,50 -40,20"
       id="path262"
       inkscape:connector-curvature="0" />
    <path
       d="m 50410,19510 h 330 l -210,500"
       id="path264"
       inkscape:connector-curvature="0" />
    <path
       d="m 50870,19510 160,500 170,-500"
       id="path266"
       inkscape:connector-curvature="0" />
    <path
       d="m 51320,19510 h 310 l -170,190 h 80 l 40,20 30,20 20,50 v 120 l -20,50 -30,20 -40,30 h -150 l -40,-30 -30,-20"
       id="path268"
       inkscape:connector-curvature="0" />
    <path
       d="m 51800,19510 h 310 l -170,190 h 80 l 40,20 30,20 20,50 v 120 l -20,50 -30,20 -40,30 h -150 l -40,-30 -30,-20"
       id="path270"
       inkscape:connector-curvature="0" />
  </g>
  <g
     style="fill:#484848;fill-opacity:0;stroke:#484848;stroke-width:0;stroke-linecap:round;stroke-linejoin:round;stroke-opacity:1"
     id="g274"
     transform="translate(-32950,-19479.573)" />
  <g
     style="fill:#000000;fill-opacity:0;stroke:#000000;stroke-width:0;stroke-linecap:round;stroke-linejoin:round;stroke-opacity:1"
     id="g276"
     transform="translate(-32950,-19479.573)" />
  <g
     style="fill:#c2c2c2;fill-opacity:0;stroke:#c2c2c2;stroke-width:0;stroke-linecap:round;stroke-linejoin:round;stroke-opacity:1"
     id="g278"
     transform="translate(-32950,-19479.573)" />
  <g
     style="fill:#c2c2c2;fill-opacity:0.6;stroke:#c2c2c2;stroke-width:0;stroke-linecap:round;stroke-linejoin:round;stroke-opacity:1"
     id="g282"
     transform="translate(-32950,-19479.573)">
    <rect
       x="33000"
       y="22000"
       width="6500"
       height="9000"
       rx="0"
       id="rect280" />
  </g>
  <g
     style="fill:#000000;fill-opacity:0.6;stroke:#000000;stroke-width:0;stroke-linecap:round;stroke-linejoin:round;stroke-opacity:1"
     id="g284"
     transform="translate(-32950,-19479.573)" />
  <g
     style="fill:#000000;fill-opacity:0;stroke:#000000;stroke-width:100;stroke-linecap:round;stroke-linejoin:round;stroke-opacity:1"
     id="g288"
     transform="translate(-32950,-19479.573)">
    <rect
       x="33000"
       y="22000"
       width="6500"
       height="9000"
       rx="0"
       id="rect286" />
  </g>
  <g
     style="fill:#000000;fill-opacity:0;stroke:#000000;stroke-width:60;stroke-linecap:round;stroke-linejoin:round;stroke-opacity:1"
     id="g292"
     transform="translate(-32950,-19479.573)">
    <path
       d="m 39500,30000 h 1000"
       id="path290"
       inkscape:connector-curvature="0" />
  </g>
  <g
     style="fill:#484848;fill-opacity:0;stroke:#484848;stroke-width:60;stroke-linecap:round;stroke-linejoin:round;stroke-opacity:1"
     id="g312"
     transform="translate(-32950,-19479.573)">
    <path
       d="m 36670,30230 v -500 h 190 l 50,20 20,20 20,50 v 70 l -20,50 -20,20 -50,30 h -190"
       id="path294"
       inkscape:connector-curvature="0" />
    <path
       d="m 37170,30230 v -500 h 190 l 50,20 20,20 20,50 v 70 l -20,50 -20,20 -50,30 h -190"
       id="path296"
       inkscape:connector-curvature="0" />
    <path
       d="m 37650,30200 70,30 h 120 l 40,-30 30,-20 20,-50 v -50 l -20,-40 -30,-30 -40,-20 -100,-30 -50,-20 -20,-20 -20,-50 v -50 l 20,-50 20,-20 50,-20 h 120 l 70,20"
       id="path298"
       inkscape:connector-curvature="0" />
    <path
       d="m 38030,30270 h 380"
       id="path300"
       inkscape:connector-curvature="0" />
    <path
       d="m 38530,30230 v -500"
       id="path302"
       inkscape:connector-curvature="0" />
    <path
       d="m 38770,29890 v 340"
       id="path304"
       inkscape:connector-curvature="0" />
    <path
       d="m 38770,29940 20,-20 50,-30 h 70 l 50,30 20,40 v 270"
       id="path306"
       inkscape:connector-curvature="0" />
    <path
       d="m 40140,29880 h -280"
       id="path308"
       inkscape:connector-curvature="0" />
    <path
       d="m 40000,29880 v -500 l -50,70 -50,50 -40,20"
       id="path310"
       inkscape:connector-curvature="0" />
  </g>
  <g
     style="fill:#000000;fill-opacity:0;stroke:#000000;stroke-width:60;stroke-linecap:round;stroke-linejoin:round;stroke-opacity:1"
     id="g316"
     transform="translate(-32950,-19479.573)">
    <path
       d="m 39500,29000 h 1000"
       id="path314"
       inkscape:connector-curvature="0" />
  </g>
  <g
     style="fill:#484848;fill-opacity:0;stroke:#484848;stroke-width:60;stroke-linecap:round;stroke-linejoin:round;stroke-opacity:1"
     id="g324"
     transform="translate(-32950,-19479.573)">
    <path
       d="m 38550,28730 h -240 l -20,230 20,-20 50,-20 h 120 l 40,20 30,20 20,50 v 120 l -20,50 -30,20 -40,30 h -120 l -50,-30 -20,-20"
       id="path318"
       inkscape:connector-curvature="0" />
    <path
       d="m 38720,28730 160,500 170,-500"
       id="path320"
       inkscape:connector-curvature="0" />
    <path
       d="m 39860,28420 20,-20 50,-20 h 120 l 40,20 30,20 20,50 v 50 l -20,70 -290,290 h 310"
       id="path322"
       inkscape:connector-curvature="0" />
  </g>
  <g
     style="fill:#000000;fill-opacity:0;stroke:#000000;stroke-width:60;stroke-linecap:round;stroke-linejoin:round;stroke-opacity:1"
     id="g328"
     transform="translate(-32950,-19479.573)">
    <path
       d="m 39500,28000 h 1000"
       id="path326"
       inkscape:connector-curvature="0" />
  </g>
  <g
     style="fill:#484848;fill-opacity:0;stroke:#484848;stroke-width:60;stroke-linecap:round;stroke-linejoin:round;stroke-opacity:1"
     id="g338"
     transform="translate(-32950,-19479.573)">
    <path
       d="m 37960,27750 -50,-20 h -70 l -70,20 -50,50 -20,50 -20,90 v 70 l 20,100 20,40 50,50 70,30 h 50 l 70,-30 20,-20 v -170 h -90"
       id="path330"
       inkscape:connector-curvature="0" />
    <path
       d="m 38200,28230 v -500 l 280,500 v -500"
       id="path332"
       inkscape:connector-curvature="0" />
    <path
       d="m 38720,28230 v -500 h 120 l 70,20 50,50 20,50 20,90 v 70 l -20,100 -20,40 -50,50 -70,30 h -120"
       id="path334"
       inkscape:connector-curvature="0" />
    <path
       d="m 39830,27380 h 310 l -170,190 h 80 l 40,20 30,20 20,50 v 120 l -20,50 -30,20 -40,30 h -150 l -40,-30 -30,-20"
       id="path336"
       inkscape:connector-curvature="0" />
  </g>
  <g
     style="fill:#000000;fill-opacity:0;stroke:#000000;stroke-width:60;stroke-linecap:round;stroke-linejoin:round;stroke-opacity:1"
     id="g342"
     transform="translate(-32950,-19479.573)">
    <path
       d="m 39500,27000 h 1000"
       id="path340"
       inkscape:connector-curvature="0" />
  </g>
  <g
     style="fill:#484848;fill-opacity:0;stroke:#484848;stroke-width:60;stroke-linecap:round;stroke-linejoin:round;stroke-opacity:1"
     id="g356"
     transform="translate(-32950,-19479.573)">
    <path
       d="m 38520,27230 -160,-240"
       id="path344"
       inkscape:connector-curvature="0" />
    <path
       d="m 38240,27230 v -500 h 190 l 50,20 20,20 20,50 v 70 l -20,50 -20,20 -50,30 h -190"
       id="path346"
       inkscape:connector-curvature="0" />
    <path
       d="m 38690,26730 330,500"
       id="path348"
       inkscape:connector-curvature="0" />
    <path
       d="m 39020,26730 -330,500"
       id="path350"
       inkscape:connector-curvature="0" />
    <path
       d="m 40090,26540 v 340"
       id="path352"
       inkscape:connector-curvature="0" />
    <path
       d="m 39970,26350 -110,360 h 300"
       id="path354"
       inkscape:connector-curvature="0" />
  </g>
  <g
     style="fill:#000000;fill-opacity:0;stroke:#000000;stroke-width:60;stroke-linecap:round;stroke-linejoin:round;stroke-opacity:1"
     id="g360"
     transform="translate(-32950,-19479.573)">
    <path
       d="m 39500,26000 h 1000"
       id="path358"
       inkscape:connector-curvature="0" />
  </g>
  <g
     style="fill:#484848;fill-opacity:0;stroke:#484848;stroke-width:60;stroke-linecap:round;stroke-linejoin:round;stroke-opacity:1"
     id="g370"
     transform="translate(-32950,-19479.573)">
    <path
       d="m 37960,25750 -50,-20 h -70 l -70,20 -50,50 -20,50 -20,90 v 70 l 20,100 20,40 50,50 70,30 h 50 l 70,-30 20,-20 v -170 h -90"
       id="path362"
       inkscape:connector-curvature="0" />
    <path
       d="m 38200,26230 v -500 l 280,500 v -500"
       id="path364"
       inkscape:connector-curvature="0" />
    <path
       d="m 38720,26230 v -500 h 120 l 70,20 50,50 20,50 20,90 v 70 l -20,100 -20,40 -50,50 -70,30 h -120"
       id="path366"
       inkscape:connector-curvature="0" />
    <path
       d="m 40120,25380 h -240 l -20,230 20,-20 50,-20 h 120 l 40,20 30,20 20,50 v 120 l -20,50 -30,20 -40,30 h -120 l -50,-30 -20,-20"
       id="path368"
       inkscape:connector-curvature="0" />
  </g>
  <g
     style="fill:#000000;fill-opacity:0;stroke:#000000;stroke-width:60;stroke-linecap:round;stroke-linejoin:round;stroke-opacity:1"
     id="g374"
     transform="translate(-32950,-19479.573)">
    <path
       d="m 39500,25000 h 1000"
       id="path372"
       inkscape:connector-curvature="0" />
  </g>
  <g
     style="fill:#484848;fill-opacity:0;stroke:#484848;stroke-width:60;stroke-linecap:round;stroke-linejoin:round;stroke-opacity:1"
     id="g386"
     transform="translate(-32950,-19479.573)">
    <path
       d="m 38290,24730 h 280"
       id="path376"
       inkscape:connector-curvature="0" />
    <path
       d="m 38430,25230 v -500"
       id="path378"
       inkscape:connector-curvature="0" />
    <path
       d="m 38690,24730 330,500"
       id="path380"
       inkscape:connector-curvature="0" />
    <path
       d="m 39020,24730 -330,500"
       id="path382"
       inkscape:connector-curvature="0" />
    <path
       d="m 40090,24380 h -90 l -50,20 -20,20 -50,80 -20,90 v 190 l 20,50 20,20 50,30 h 100 l 40,-30 30,-20 20,-50 v -120 l -20,-50 -30,-20 -40,-20 h -100 l -50,20 -20,20 -20,50"
       id="path384"
       inkscape:connector-curvature="0" />
  </g>
  <g
     style="fill:#000000;fill-opacity:0;stroke:#000000;stroke-width:60;stroke-linecap:round;stroke-linejoin:round;stroke-opacity:1"
     id="g390"
     transform="translate(-32950,-19479.573)">
    <path
       d="m 39500,24000 h 1000"
       id="path388"
       inkscape:connector-curvature="0" />
  </g>
  <g
     style="fill:#484848;fill-opacity:0;stroke:#484848;stroke-width:60;stroke-linecap:round;stroke-linejoin:round;stroke-opacity:1"
     id="g400"
     transform="translate(-32950,-19479.573)">
    <path
       d="m 37960,23750 -50,-20 h -70 l -70,20 -50,50 -20,50 -20,90 v 70 l 20,100 20,40 50,50 70,30 h 50 l 70,-30 20,-20 v -170 h -90"
       id="path392"
       inkscape:connector-curvature="0" />
    <path
       d="m 38200,24230 v -500 l 280,500 v -500"
       id="path394"
       inkscape:connector-curvature="0" />
    <path
       d="m 38720,24230 v -500 h 120 l 70,20 50,50 20,50 20,90 v 70 l -20,100 -20,40 -50,50 -70,30 h -120"
       id="path396"
       inkscape:connector-curvature="0" />
    <path
       d="m 39830,23380 h 330 l -210,500"
       id="path398"
       inkscape:connector-curvature="0" />
  </g>
  <g
     style="fill:#000000;fill-opacity:0;stroke:#000000;stroke-width:60;stroke-linecap:round;stroke-linejoin:round;stroke-opacity:1"
     id="g404"
     transform="translate(-32950,-19479.573)">
    <path
       d="m 39500,23000 h 1000"
       id="path402"
       inkscape:connector-curvature="0" />
  </g>
  <g
     style="fill:#484848;fill-opacity:0;stroke:#484848;stroke-width:60;stroke-linecap:round;stroke-linejoin:round;stroke-opacity:1"
     id="g432"
     transform="translate(-32950,-19479.573)">
    <path
       d="m 37960,22750 -50,-20 h -70 l -70,20 -50,50 -20,50 -20,90 v 70 l 20,100 20,40 50,50 70,30 h 50 l 70,-30 20,-20 v -170 h -90"
       id="path406"
       inkscape:connector-curvature="0" />
    <path
       d="m 38200,23230 v -500 l 280,500 v -500"
       id="path408"
       inkscape:connector-curvature="0" />
    <path
       d="m 38720,23230 v -500 h 120 l 70,20 50,50 20,50 20,90 v 70 l -20,100 -20,40 -50,50 -70,30 h -120"
       id="path410"
       inkscape:connector-curvature="0" />
    <path
       d="m 39950,22590 -50,-20 -20,-30 -20,-40 v -30 l 20,-50 20,-20 50,-20 h 100 l 40,20 30,20 20,50 v 30 l -20,40 -30,30 -40,20 h -100 l -50,20 -20,30 -20,50 v 90 l 20,50 20,20 50,30 h 100 l 40,-30 30,-20 20,-50 v -90 l -20,-50 -30,-30 -40,-20"
       id="path412"
       inkscape:connector-curvature="0" />
    <path
       d="m 35040,27210 v 490 l 30,50 30,30 60,30 h 110 l 60,-30 30,-30 30,-50 v -490"
       id="path414"
       inkscape:connector-curvature="0" />
    <path
       d="m 35990,27810 h -350"
       id="path416"
       inkscape:connector-curvature="0" />
    <path
       d="m 35820,27810 v -600 l -60,90 -60,50 -60,30"
       id="path418"
       inkscape:connector-curvature="0" />
    <path
       d="m 34190,25210 200,600 200,-600"
       id="path420"
       inkscape:connector-curvature="0" />
    <path
       d="m 35070,25810 h -290 v -600"
       id="path422"
       inkscape:connector-curvature="0" />
    <path
       d="m 35270,25810 v -600 h 230 l 60,30 30,30 30,60 v 80 l -30,60 -30,30 -60,30 h -230"
       id="path424"
       inkscape:connector-curvature="0" />
    <path
       d="m 36190,25810 h -350"
       id="path426"
       inkscape:connector-curvature="0" />
    <path
       d="m 36020,25810 v -600 l -60,90 -60,50 -60,30"
       id="path428"
       inkscape:connector-curvature="0" />
    <path
       d="m 36700,25210 h -110 l -60,30 -30,30 -60,80 -30,120 v 230 l 30,50 30,30 60,30 h 110 l 60,-30 30,-30 30,-50 v -150 l -30,-50 -30,-30 -60,-30 h -110 l -60,30 -30,30 -30,50"
       id="path430"
       inkscape:connector-curvature="0" />
  </g>
  <g
     style="fill:#000000;fill-opacity:0;stroke:#000000;stroke-width:60;stroke-linecap:round;stroke-linejoin:round;stroke-opacity:1"
     id="g456"
     transform="translate(-32950,-19479.573)">
    <path
       d="m 40500,27000 h 2000"
       id="path434"
       inkscape:connector-curvature="0" />
    <path
       d="M 42000,29000 H 40500"
       id="path436"
       inkscape:connector-curvature="0" />
    <path
       d="m 42000,21000 v 8000"
       id="path438"
       inkscape:connector-curvature="0" />
    <path
       d="m 42000,21000 h 3000"
       id="path440"
       inkscape:connector-curvature="0" />
    <path
       d="M 40500,30000 H 53500"
       id="path442"
       inkscape:connector-curvature="0" />
    <path
       d="m 40500,28000 h 2500"
       id="path444"
       inkscape:connector-curvature="0" />
    <path
       d="M 41000,28000 V 24000"
       id="path446"
       inkscape:connector-curvature="0" />
    <path
       d="M 41000,24000 H 52500"
       id="path448"
       inkscape:connector-curvature="0" />
    <path
       d="m 51000,21000 h 2500"
       id="path450"
       inkscape:connector-curvature="0" />
    <path
       d="m 53500,21000 v 5000"
       id="path452"
       inkscape:connector-curvature="0" />
    <path
       d="m 52500,27000 h 1000"
       id="path454"
       inkscape:connector-curvature="0" />
  </g>
  <g
     style="fill:#000000;fill-opacity:0;stroke:#000000;stroke-width:0;stroke-linecap:round;stroke-linejoin:round;stroke-opacity:1"
     id="g458"
     transform="translate(-32950,-19479.573)" />
  <g
     style="fill:#000000;fill-opacity:1;stroke:#000000;stroke-width:0;stroke-linecap:round;stroke-linejoin:round;stroke-miterlimit:4;stroke-dasharray:none;stroke-opacity:1"
     id="g462"
     transform="matrix(0.5,0,0,0.5,-8950,-7479.573)">
    <circle
       cx="48000"
       cy="24000"
       r="200"
       id="circle460"
       style="stroke-width:0;stroke-miterlimit:4;stroke-dasharray:none" />
  </g>
  <g
     style="fill:#000000;fill-opacity:1;stroke:#000000;stroke-width:0;stroke-linecap:round;stroke-linejoin:round;stroke-opacity:1"
     id="g464"
     transform="translate(-32950,-19479.573)" />
  <g
     style="fill:#000000;fill-opacity:1;stroke:#000000;stroke-width:0;stroke-linecap:round;stroke-linejoin:round;stroke-miterlimit:4;stroke-dasharray:none;stroke-opacity:1"
     id="g468"
     transform="matrix(0.5,0,0,0.5,-12450,-5479.573)">
    <circle
       cx="41000"
       cy="28000"
       r="200"
       id="circle466"
       style="stroke-width:0;stroke-miterlimit:4;stroke-dasharray:none" />
  </g>
  <g
     style="fill:#000000;fill-opacity:1;stroke:#000000;stroke-width:0;stroke-linecap:round;stroke-linejoin:round;stroke-opacity:1"
     id="g470"
     transform="translate(-32950,-19479.573)" />
  <g
     style="fill:#000000;fill-opacity:0;stroke:#000000;stroke-width:60;stroke-linecap:round;stroke-linejoin:round;stroke-opacity:1"
     id="g476"
     transform="translate(-32950,-19479.573)">
    <line
       x1="50600"
       y1="22100"
       x2="50600"
       y2="22300"
       id="line472" />
    <line
       x1="50600"
       y1="22300"
       x2="52400"
       y2="22300"
       id="line474" />
  </g>
  <g
     style="fill:#000000;fill-opacity:1;stroke:#000000;stroke-width:60;stroke-linecap:round;stroke-linejoin:round;stroke-opacity:1"
     id="g480"
     transform="translate(-32950,-19479.573)">
    <rect
       x="50600"
       y="22700"
       width="1800"
       height="200"
       rx="0"
       id="rect478" />
  </g>
  <g
     style="fill:#000000;fill-opacity:0;stroke:#000000;stroke-width:60;stroke-linecap:round;stroke-linejoin:round;stroke-opacity:1"
     id="g494"
     transform="translate(-32950,-19479.573)">
    <line
       x1="50600"
       y1="22100"
       x2="52400"
       y2="22100"
       id="line482" />
    <line
       x1="52400"
       y1="22100"
       x2="52400"
       y2="22300"
       id="line484" />
    <polyline
       fill="none;"
       points="50800,21600 51200,21600 "
       id="polyline486" />
    <polyline
       fill="none;"
       points="51000,21400 51000,21800 "
       id="polyline488" />
    <path
       d="M 51500,22100 V 21000"
       id="path490"
       inkscape:connector-curvature="0" />
    <path
       d="m 51500,22900 v 1100"
       id="path492"
       inkscape:connector-curvature="0" />
  </g>
  <g
     style="fill:#484848;fill-opacity:0;stroke:#484848;stroke-width:60;stroke-linecap:round;stroke-linejoin:round;stroke-opacity:1"
     id="g512"
     transform="translate(-32950,-19479.573)">
    <path
       d="m 52150,21710 -20,20 -70,30 h -50 l -70,-30 -50,-50 -20,-40 -20,-100 v -70 l 20,-90 20,-50 50,-50 70,-20 h 50 l 70,20 20,20"
       id="path496"
       inkscape:connector-curvature="0" />
    <path
       d="m 52350,21300 20,-20 50,-20 h 120 l 40,20 30,20 20,50 v 50 l -20,70 -290,290 h 310"
       id="path498"
       inkscape:connector-curvature="0" />
    <path
       d="m 52130,23760 h -280"
       id="path500"
       inkscape:connector-curvature="0" />
    <path
       d="m 51990,23760 v -500 l -50,70 -50,50 -40,20"
       id="path502"
       inkscape:connector-curvature="0" />
    <path
       d="m 52440,23260 h 50 l 50,20 20,20 30,50 20,100 v 120 l -20,90 -30,50 -20,20 -50,30 h -50 l -40,-30 -30,-20 -20,-50 -20,-90 v -120 l 20,-100 20,-50 30,-20 40,-20"
       id="path504"
       inkscape:connector-curvature="0" />
    <path
       d="m 52830,23420 v 500"
       id="path506"
       inkscape:connector-curvature="0" />
    <path
       d="m 53070,23680 20,50 50,30"
       id="path508"
       inkscape:connector-curvature="0" />
    <path
       d="m 52830,23680 20,50 50,30 h 100 l 40,-30 30,-50 v -260"
       id="path510"
       inkscape:connector-curvature="0" />
  </g>
  <g
     style="fill:#484848;fill-opacity:0;stroke:#484848;stroke-width:0;stroke-linecap:round;stroke-linejoin:round;stroke-opacity:1"
     id="g514"
     transform="translate(-32950,-19479.573)" />
  <g
     style="fill:#000000;fill-opacity:0;stroke:#000000;stroke-width:0;stroke-linecap:round;stroke-linejoin:round;stroke-opacity:1"
     id="g516"
     transform="translate(-32950,-19479.573)" />
  <g
     style="fill:#000000;fill-opacity:0;stroke:#000000;stroke-width:60;stroke-linecap:round;stroke-linejoin:round;stroke-opacity:1"
     id="g522"
     transform="translate(-32950,-19479.573)">
    <line
       x1="43100"
       y1="22100"
       x2="43100"
       y2="22300"
       id="line518" />
    <line
       x1="43100"
       y1="22300"
       x2="44900"
       y2="22300"
       id="line520" />
  </g>
  <g
     style="fill:#000000;fill-opacity:1;stroke:#000000;stroke-width:60;stroke-linecap:round;stroke-linejoin:round;stroke-opacity:1"
     id="g526"
     transform="translate(-32950,-19479.573)">
    <rect
       x="43100"
       y="22700"
       width="1800"
       height="200"
       rx="0"
       id="rect524" />
  </g>
  <g
     style="fill:#000000;fill-opacity:0;stroke:#000000;stroke-width:60;stroke-linecap:round;stroke-linejoin:round;stroke-opacity:1"
     id="g540"
     transform="translate(-32950,-19479.573)">
    <line
       x1="43100"
       y1="22100"
       x2="44900"
       y2="22100"
       id="line528" />
    <line
       x1="44900"
       y1="22100"
       x2="44900"
       y2="22300"
       id="line530" />
    <polyline
       fill="none;"
       points="43300,21600 43700,21600 "
       id="polyline532" />
    <polyline
       fill="none;"
       points="43500,21400 43500,21800 "
       id="polyline534" />
    <path
       d="M 44000,22100 V 21000"
       id="path536"
       inkscape:connector-curvature="0" />
    <path
       d="m 44000,22900 v 1100"
       id="path538"
       inkscape:connector-curvature="0" />
  </g>
  <g
     style="fill:#484848;fill-opacity:0;stroke:#484848;stroke-width:60;stroke-linecap:round;stroke-linejoin:round;stroke-opacity:1"
     id="g560"
     transform="translate(-32950,-19479.573)">
    <path
       d="m 44650,21710 -20,20 -70,30 h -50 l -70,-30 -50,-50 -20,-40 -20,-100 v -70 l 20,-90 20,-50 50,-50 70,-20 h 50 l 70,20 20,20"
       id="path542"
       inkscape:connector-curvature="0" />
    <path
       d="m 45130,21760 h -280"
       id="path544"
       inkscape:connector-curvature="0" />
    <path
       d="m 44990,21760 v -500 l -50,70 -50,50 -40,20"
       id="path546"
       inkscape:connector-curvature="0" />
    <path
       d="m 44630,23760 h -280"
       id="path548"
       inkscape:connector-curvature="0" />
    <path
       d="m 44490,23760 v -500 l -50,70 -50,50 -40,20"
       id="path550"
       inkscape:connector-curvature="0" />
    <path
       d="m 44940,23260 h 50 l 50,20 20,20 30,50 20,100 v 120 l -20,90 -30,50 -20,20 -50,30 h -50 l -40,-30 -30,-20 -20,-50 -20,-90 v -120 l 20,-100 20,-50 30,-20 40,-20"
       id="path552"
       inkscape:connector-curvature="0" />
    <path
       d="m 45330,23420 v 500"
       id="path554"
       inkscape:connector-curvature="0" />
    <path
       d="m 45570,23680 20,50 50,30"
       id="path556"
       inkscape:connector-curvature="0" />
    <path
       d="m 45330,23680 20,50 50,30 h 100 l 40,-30 30,-50 v -260"
       id="path558"
       inkscape:connector-curvature="0" />
  </g>
  <g
     style="fill:#000000;fill-opacity:0;stroke:#000000;stroke-width:60;stroke-linecap:round;stroke-linejoin:round;stroke-opacity:1"
     id="g566"
     transform="translate(-32950,-19479.573)">
    <path
       d="m 42000,25000 h 5500"
       id="path562"
       inkscape:connector-curvature="0" />
    <path
       d="m 47500,25000 v 1000"
       id="path564"
       inkscape:connector-curvature="0" />
  </g>
  <g
     style="fill:#000000;fill-opacity:0;stroke:#000000;stroke-width:0;stroke-linecap:round;stroke-linejoin:round;stroke-opacity:1"
     id="g568"
     transform="translate(-32950,-19479.573)" />
  <g
     style="fill:#000000;fill-opacity:1;stroke:#000000;stroke-width:0;stroke-linecap:round;stroke-linejoin:round;stroke-miterlimit:4;stroke-dasharray:none;stroke-opacity:1"
     id="g572"
     transform="matrix(0.5,0,0,0.5,-11950,-6979.573)">
    <circle
       cx="42000"
       cy="25000"
       r="200"
       id="circle570"
       style="stroke-width:0;stroke-miterlimit:4;stroke-dasharray:none" />
  </g>
  <g
     style="fill:#000000;fill-opacity:1;stroke:#000000;stroke-width:60;stroke-linecap:round;stroke-linejoin:round;stroke-opacity:1"
     id="g574"
     transform="translate(-32950,-19479.573)" />
  <g
     style="fill:#000000;fill-opacity:0;stroke:#000000;stroke-width:60;stroke-linecap:round;stroke-linejoin:round;stroke-opacity:1"
     id="g582"
     transform="translate(-32950,-19479.573)">
    <path
       d="m 43000,28000 v 1000"
       id="path576"
       inkscape:connector-curvature="0" />
    <path
       d="m 43000,29000 h 4500"
       id="path578"
       inkscape:connector-curvature="0" />
    <path
       d="M 47500,29000 V 28000"
       id="path580"
       inkscape:connector-curvature="0" />
  </g>
  <g
     style="fill:#000000;fill-opacity:0;stroke:#000000;stroke-width:0;stroke-linecap:round;stroke-linejoin:round;stroke-opacity:1"
     id="g584"
     transform="translate(-32950,-19479.573)" />
  <g
     style="fill:#000000;fill-opacity:1;stroke:#000000;stroke-width:0;stroke-linecap:round;stroke-linejoin:round;stroke-miterlimit:4;stroke-dasharray:none;stroke-opacity:1"
     id="g588"
     transform="matrix(0.5,0,0,0.5,-10950,-7479.573)">
    <circle
       cx="44000"
       cy="24000"
       r="200"
       id="circle586"
       style="stroke-width:0;stroke-miterlimit:4;stroke-dasharray:none" />
  </g>
  <g
     style="fill:#000000;fill-opacity:1;stroke:#000000;stroke-width:0;stroke-linecap:round;stroke-linejoin:round;stroke-opacity:1"
     id="g590"
     transform="translate(-32950,-19479.573)" />
  <g
     style="fill:#000000;fill-opacity:1;stroke:#000000;stroke-width:0;stroke-linecap:round;stroke-linejoin:round;stroke-miterlimit:4;stroke-dasharray:none;stroke-opacity:1"
     id="g594"
     transform="matrix(0.5,0,0,0.5,-10950,-8979.573)">
    <circle
       cx="44000"
       cy="21000"
       r="200"
       id="circle592"
       style="stroke-width:0;stroke-miterlimit:4;stroke-dasharray:none" />
  </g>
  <g
     style="fill:#000000;fill-opacity:1;stroke:#000000;stroke-width:0;stroke-linecap:round;stroke-linejoin:round;stroke-opacity:1"
     id="g596"
     transform="translate(-32950,-19479.573)" />
  <g
     style="fill:#000000;fill-opacity:1;stroke:#000000;stroke-width:0;stroke-linecap:round;stroke-linejoin:round;stroke-miterlimit:4;stroke-dasharray:none;stroke-opacity:1"
     id="g600"
     transform="matrix(0.5,0,0,0.5,-7200,-7479.573)">
    <circle
       cx="51500"
       cy="24000"
       r="200"
       id="circle598"
       style="stroke-width:0;stroke-miterlimit:4;stroke-dasharray:none" />
  </g>
  <g
     style="fill:#000000;fill-opacity:1;stroke:#000000;stroke-width:0;stroke-linecap:round;stroke-linejoin:round;stroke-opacity:1"
     id="g602"
     transform="translate(-32950,-19479.573)" />
  <g
     style="fill:#000000;fill-opacity:1;stroke:#000000;stroke-width:0;stroke-linecap:round;stroke-linejoin:round;stroke-miterlimit:4;stroke-dasharray:none;stroke-opacity:1"
     id="g606"
     transform="matrix(0.5,0,0,0.5,-7200,-8979.573)">
    <circle
       cx="51500"
       cy="21000"
       r="200"
       id="circle604"
       style="stroke-width:0;stroke-miterlimit:4;stroke-dasharray:none" />
  </g>
  <g
     style="fill:#000000;fill-opacity:1;stroke:#000000;stroke-width:60;stroke-linecap:round;stroke-linejoin:round;stroke-opacity:1"
     id="g608"
     transform="translate(-32950,-19479.573)" />
  <g
     style="fill:#000000;fill-opacity:0;stroke:#000000;stroke-width:60;stroke-linecap:round;stroke-linejoin:round;stroke-opacity:1"
     id="g616"
     transform="translate(-32950,-19479.573)">
    <path
       d="m 52500,24000 v 3000"
       id="path610"
       inkscape:connector-curvature="0" />
    <path
       d="m 51500,27000 v 1000"
       id="path612"
       inkscape:connector-curvature="0" />
    <path
       d="m 51500,28000 h 2000"
       id="path614"
       inkscape:connector-curvature="0" />
  </g>
</svg>
